<svg width="1024" height="1024" viewBox="0 0 1024 1024" xmlns="http://www.w3.org/2000/svg">
  <!-- User logo (viewBox 46.1 89.5 77.1 63) centered in a 1024 square,
       scaled to fill ~94% of the tile so it reads at taskbar size. -->
  <g transform="translate(34,122) scale(12.4) translate(-46.1,-89.5)">
    <path d="m92.6 104v-14.5h-25.6c-2 0-3.7 1.7-3.7 3.9v55.4c0 2.2 1.6 3.7 3.5 3.7h39.6c1.2 0 3.4-2.3 3.5-4.3v-42.3h-15.5c-1 0.1-1.8-0.8-1.8-1.9z" fill="#63666A"/>
    <polygon points="94.7 90 94.7 103.7 110 103.7" fill="#63666A"/>
    <path d="m120.5 117.8-49.3 0.7c-2.2 0-3-3.3-0.4-4.1l48.8-1.9c2.8-0.2 3.7 5.2 0.9 5.3zm-17.6 5.4c-2.9 0-48.9 0.1-54-0.3-2.2 0.1-2.6 3.4 0 3.8h54c3 0 3.1-3.7 0-3.5zm-11.3 6.8-33.3 0.5c-2.2 0.3-2.6 3.6 0 4l33.4 0.8c3.1 0 3.5-4.8-0.1-5.3z" fill="#26ABE2"/>
  </g>
</svg>
