<svg xmlns="http://www.w3.org/2000/svg" viewBox="0 0 145.9 171.3">
<!-- SVG created with Arrow, by QuiverAI (https://quiver.ai) -->
  <style type="text/css">.cls-0 {fill:#EFEFEF;}
.cls-1 {fill:#666A6f;}
.cls-2 {fill:#28B0ED;}
.cls-3 {fill:#676C72;}</style>
  <path class="cls-1" d="m87.6 2.8v28.2c0 1.9 1.4 3.5 3.4 3.6h29.5v82.6c-1.1 2.8-3.5 6.8-7.5 6.8h-73.4c-3 0-6.6-2.3-6.6-7.4l0.2-106.6c0-4 3.1-7.2 6.8-7.2h47.6z"/>
  <path class="cls-1" d="m91.7 30.1v-27.1l28.3 27.1h-28.3z"/>
  <path class="cls-1" d="m119.3 63.1-20.6 0.2c-3.1 0.1-9.6 9.1-9.6 11.9 0 6.6-0.5 27.3 0.1 39.7 0.2 4.3 3.6 8.5 7.9 8.8l15.6 0.3c3.7 0 6.7-2.8 6.8-6.5v-54.4h-0.2z"/>
  <path class="cls-2" d="m138.6 46.4-91.5 3.9c-1.9 0.2-3.6 2-3.6 3.7s1.4 3.9 3.1 4.1l92.1-1.5c2.5-0.2 4.7-2 4.7-4.7 0-3.4-2.4-5.5-4.8-5.5z"/>
  <path class="cls-2" d="m106.6 63.3-100.8 3.3c-1.7 0.2-3.3 1.6-3.3 3.7s1.8 3.7 3.7 3.8l100.3-0.3c2.4 0.3 5.1-1.7 5.1-5 0-3-2.7-5.9-5-5.5z"/>
  <path class="cls-2" d="m86.1 80.8-62.2 1.2c-1.6 0.2-3.5 1.7-3.5 3.9s2 3.7 3.5 3.7l61.5 1.3c3.9 0.3 5.5-2.7 5.4-5.2s-2.4-5.1-4.7-4.9z"/>
  <path class="cls-3" d="m25.3 156.5c0 3.6-1.1 6.4-2.9 8.2l2.7 4h-4.4l-1.8-2.2c-1.2 0.4-2.5 0.6-3.9 0.6-5.7 0-9.5-4.1-9.5-10.6s3.8-11 9.9-11c6.1-0.1 9.9 4.2 9.9 11zm-15-0.2c0 4 1.7 6.8 4.8 6.8h1.5l-2.2-3.8h3.8l1.2 1.8c0.9-1.4 1.4-3 1.4-4.8 0-3.8-1.7-6.9-5.3-6.9-3.4 0-5.2 2.8-5.2 6.9z"/>
  <path class="cls-3" d="m43.2 167h-4.5v-3h-0.1c-0.8 2.2-2.7 3.1-4.8 3.1-3.2 0-5.4-1.8-5.4-6.3v-9.7h4.5v9c0 2.3 1.2 3.3 2.7 3.3 1.7 0 3-1.2 3-3.2v-9h4.6v15.8z"/>
  <path class="cls-3" d="m47.1 145.2c1.1-1.2 2.8-1.2 3.8 0s0.9 2.6-0.2 3.4c-1 0.9-2.8 0.5-3.6-0.4-0.7-0.8-1.2-2 0-3zm-0.4 5.6h4.3v16.2h-4.6v-15.8h0.3z"/>
  <path class="cls-3" d="m53.7 159c0-4.8 3-7.9 7.7-7.9 4.3 0 6.9 2.4 7.1 6h-4.1c-0.3-1.6-1.2-2.6-2.8-2.6-2.1 0-3.3 1.7-3.3 4.5s1.3 4.7 3.3 4.7c1.4 0.1 2.6-0.9 2.8-2.6h4.1c-0.1 3.7-2.7 6.1-7.1 6.1-4.9 0.1-7.7-3.4-7.7-8.2z"/>
  <path class="cls-3" d="m78 160.5-2.2 1.2v5.2h-4.9v-21.2h4.3v11.3h0.1l5.1-5.8h5.2l-6 6.7 6.5 9h-5.5l-4.3-6.4z"/>
  <path class="cls-3" d="m96 145.7c4.3 0 7.4 2.5 7.4 7.4 0 4-3.2 7-7.7 7h-3.4v6.8h-4.5v-21.2h8.2zm-3.8 10.8h3.2c2.1 0 3.4-1.2 3.4-3.3s-1.4-3.7-3.5-3.7h-3v7h-0.1z"/>
  <path class="cls-3" d="m114.6 145.7c6.2 0 9.9 3.4 9.9 10.4 0 6.5-3.3 10.8-10 10.8h-8.4v-21.2h8.5zm-3.9 17.2h3.3c3 0 5.8-1.6 5.8-6.7 0-4.2-1.8-6.4-5.8-6.4h-3.2l-0.1 13.1z"/>
  <path class="cls-3" d="m127.8 166.9v-21.2h14.3v3.8h-9.5v5.2h8.7v3.5h-8.7v8.6l-4.8 0.1z"/>
</svg>